<svg width="120" height="120" viewBox="0 0 120 120" fill="none" xmlns="http://www.w3.org/2000/svg">
<g clip-path="url(#clip0_262_2)">
<rect x="70" width="10" height="10" fill="#4A494F"/>
<rect x="70" y="50" width="10" height="10" fill="#333237"/>
<rect x="80" width="10" height="10" fill="#4A494F"/>
<rect x="80" y="50" width="10" height="10" fill="#333237"/>
<rect y="50" width="10" height="10" fill="#4A494F"/>
<rect x="90" width="10" height="10" fill="#646569"/>
<rect x="90" y="50" width="10" height="10" fill="#333237"/>
<rect x="10" width="10" height="10" fill="#646569"/>
<rect x="10" y="50" width="10" height="10" fill="#3D3D3F"/>
<rect x="100" width="10" height="10" fill="#646569"/>
<rect x="110" width="10" height="10" fill="#646569"/>
<rect x="100" y="50" width="10" height="10" fill="#3D3D3F"/>
<rect x="20" width="10" height="10" fill="#646569"/>
<rect x="20" y="50" width="10" height="10" fill="#333237"/>
<rect x="110" y="50" width="10" height="10" fill="#4A494F"/>
<rect x="30" width="10" height="10" fill="#4A494F"/>
<rect x="30" y="50" width="10" height="10" fill="#333237"/>
<rect x="40" width="10" height="10" fill="#4A494F"/>
<rect x="40" y="50" width="10" height="10" fill="#333237"/>
<rect x="50" width="10" height="10" fill="#4A494F"/>
<rect x="50" y="50" width="10" height="10" fill="#333237"/>
<rect x="60" width="10" height="10" fill="#4A494F"/>
<rect x="60" y="50" width="10" height="10" fill="#333237"/>
<rect x="70" y="40" width="10" height="10" fill="#333237"/>
<rect x="70" y="90" width="10" height="10" fill="#333237"/>
<rect x="70" y="110" width="10" height="10" fill="#4A494F"/>
<rect x="70" y="20" width="10" height="10" fill="#333237"/>
<rect x="70" y="70" width="10" height="10" fill="#333237"/>
<rect x="70" y="10" width="10" height="10" fill="#3D3D3F"/>
<rect x="70" y="60" width="10" height="10" fill="#333237"/>
<rect x="70" y="30" width="10" height="10" fill="#333237"/>
<rect x="70" y="80" width="10" height="10" fill="#333237"/>
<rect x="70" y="100" width="10" height="10" fill="#3D3D3F"/>
<rect x="80" y="40" width="10" height="10" fill="#333237"/>
<rect x="80" y="90" width="10" height="10" fill="#333237"/>
<rect x="80" y="110" width="10" height="10" fill="#4A494F"/>
<rect x="80" y="20" width="10" height="10" fill="#333237"/>
<rect x="80" y="70" width="10" height="10" fill="#333237"/>
<rect x="80" y="10" width="10" height="10" fill="#3D3D3F"/>
<rect x="80" y="60" width="10" height="10" fill="#333237"/>
<rect x="80" y="30" width="10" height="10" fill="#2A292F"/>
<rect x="80" y="80" width="10" height="10" fill="#333237"/>
<rect x="80" y="100" width="10" height="10" fill="#3D3D3F"/>
<rect y="40" width="10" height="10" fill="#4A494F"/>
<rect y="90" width="10" height="10" fill="#4A494F"/>
<rect y="20" width="10" height="10" fill="#646569"/>
<rect y="70" width="10" height="10" fill="#4A494F"/>
<rect y="10" width="10" height="10" fill="#646569"/>
<rect width="10" height="10" fill="#646569"/>
<rect y="60" width="10" height="10" fill="#4A494F"/>
<rect y="30" width="10" height="10" fill="#4A494F"/>
<rect y="80" width="10" height="10" fill="#4A494F"/>
<rect y="100" width="10" height="10" fill="#646569"/>
<rect x="90" y="40" width="10" height="10" fill="#2A292F"/>
<rect x="90" y="90" width="10" height="10" fill="#333237"/>
<rect x="90" y="110" width="10" height="10" fill="#4A494F"/>
<rect x="90" y="20" width="10" height="10" fill="#2A292F"/>
<rect x="90" y="70" width="10" height="10" fill="#333237"/>
<rect x="90" y="10" width="10" height="10" fill="#4B4C4E"/>
<rect x="90" y="60" width="10" height="10" fill="#333237"/>
<rect x="90" y="30" width="10" height="10" fill="#65656D"/>
<rect x="90" y="80" width="10" height="10" fill="#333237"/>
<rect x="90" y="100" width="10" height="10" fill="#4B4C4E"/>
<rect x="10" y="40" width="10" height="10" fill="#3D3D3F"/>
<rect x="10" y="90" width="10" height="10" fill="#4B4C4E"/>
<rect x="10" y="110" width="10" height="10" fill="#646569"/>
<rect y="110" width="10" height="10" fill="#646569"/>
<rect x="10" y="20" width="10" height="10" fill="#4B4C4E"/>
<rect x="10" y="70" width="10" height="10" fill="#3D3D3F"/>
<rect x="10" y="10" width="10" height="10" fill="#4B4C4E"/>
<rect x="10" y="60" width="10" height="10" fill="#3D3D3F"/>
<rect x="10" y="30" width="10" height="10" fill="#3D3D3F"/>
<rect x="10" y="80" width="10" height="10" fill="#3D3D3F"/>
<rect x="10" y="100" width="10" height="10" fill="#4B4C4E"/>
<rect x="100" y="40" width="10" height="10" fill="#3D3D3F"/>
<rect x="100" y="90" width="10" height="10" fill="#4B4C4E"/>
<rect x="100" y="110" width="10" height="10" fill="#646569"/>
<rect x="100" y="20" width="10" height="10" fill="#4B4C4E"/>
<rect x="100" y="70" width="10" height="10" fill="#3D3D3F"/>
<rect x="100" y="10" width="10" height="10" fill="#4B4C4E"/>
<rect x="100" y="60" width="10" height="10" fill="#3D3D3F"/>
<rect x="100" y="30" width="10" height="10" fill="#2A292F"/>
<rect x="100" y="80" width="10" height="10" fill="#3D3D3F"/>
<rect x="100" y="100" width="10" height="10" fill="#4B4C4E"/>
<rect x="20" y="40" width="10" height="10" fill="#333237"/>
<rect x="20" y="90" width="10" height="10" fill="#333237"/>
<rect x="20" y="110" width="10" height="10" fill="#4A494F"/>
<rect x="20" y="20" width="10" height="10" fill="#333237"/>
<rect x="20" y="70" width="10" height="10" fill="#333237"/>
<rect x="20" y="10" width="10" height="10" fill="#4B4C4E"/>
<rect x="20" y="60" width="10" height="10" fill="#333237"/>
<rect x="20" y="30" width="10" height="10" fill="#333237"/>
<rect x="20" y="80" width="10" height="10" fill="#333237"/>
<rect x="20" y="100" width="10" height="10" fill="#4B4C4E"/>
<rect x="110" y="40" width="10" height="10" fill="#4A494F"/>
<rect x="110" y="90" width="10" height="10" fill="#646569"/>
<rect x="110" y="20" width="10" height="10" fill="#4A494F"/>
<rect x="110" y="70" width="10" height="10" fill="#4A494F"/>
<rect x="110" y="10" width="10" height="10" fill="#646569"/>
<rect x="110" y="60" width="10" height="10" fill="#4A494F"/>
<rect x="110" y="30" width="10" height="10" fill="#4A494F"/>
<rect x="110" y="80" width="10" height="10" fill="#4A494F"/>
<rect x="110" y="100" width="10" height="10" fill="#646569"/>
<rect x="110" y="110" width="10" height="10" fill="#646569"/>
<rect x="30" y="40" width="10" height="10" fill="#333237"/>
<rect x="30" y="90" width="10" height="10" fill="#333237"/>
<rect x="30" y="110" width="10" height="10" fill="#4A494F"/>
<rect x="30" y="20" width="10" height="10" fill="#333237"/>
<rect x="30" y="70" width="10" height="10" fill="#333237"/>
<rect x="30" y="10" width="10" height="10" fill="#3D3D3F"/>
<rect x="30" y="60" width="10" height="10" fill="#333237"/>
<rect x="30" y="30" width="10" height="10" fill="#333237"/>
<rect x="30" y="80" width="10" height="10" fill="#333237"/>
<rect x="30" y="100" width="10" height="10" fill="#3D3D3F"/>
<rect x="40" y="40" width="10" height="10" fill="#333237"/>
<rect x="40" y="90" width="10" height="10" fill="#333237"/>
<rect x="40" y="110" width="10" height="10" fill="#4A494F"/>
<rect x="40" y="20" width="10" height="10" fill="#333237"/>
<rect x="40" y="70" width="10" height="10" fill="#333237"/>
<rect x="40" y="10" width="10" height="10" fill="#3D3D3F"/>
<rect x="40" y="60" width="10" height="10" fill="#333237"/>
<rect x="40" y="30" width="10" height="10" fill="#333237"/>
<rect x="40" y="80" width="10" height="10" fill="#333237"/>
<rect x="40" y="100" width="10" height="10" fill="#3D3D3F"/>
<rect x="50" y="40" width="10" height="10" fill="#333237"/>
<rect x="50" y="90" width="10" height="10" fill="#333237"/>
<rect x="50" y="110" width="10" height="10" fill="#4A494F"/>
<rect x="50" y="20" width="10" height="10" fill="#333237"/>
<rect x="50" y="70" width="10" height="10" fill="#333237"/>
<rect x="50" y="10" width="10" height="10" fill="#3D3D3F"/>
<rect x="50" y="60" width="10" height="10" fill="#333237"/>
<rect x="50" y="30" width="10" height="10" fill="#333237"/>
<rect x="50" y="80" width="10" height="10" fill="#333237"/>
<rect x="50" y="100" width="10" height="10" fill="#3D3D3F"/>
<rect x="60" y="40" width="10" height="10" fill="#333237"/>
<rect x="60" y="90" width="10" height="10" fill="#333237"/>
<rect x="60" y="110" width="10" height="10" fill="#4A494F"/>
<rect x="60" y="20" width="10" height="10" fill="#333237"/>
<rect x="60" y="70" width="10" height="10" fill="#333237"/>
<rect x="60" y="10" width="10" height="10" fill="#3D3D3F"/>
<rect x="60" y="60" width="10" height="10" fill="#333237"/>
<rect x="60" y="30" width="10" height="10" fill="#333237"/>
<rect x="60" y="80" width="10" height="10" fill="#333237"/>
<rect x="60" y="100" width="10" height="10" fill="#3D3D3F"/>
</g>
<defs>
<clipPath id="clip0_262_2">
<rect width="120" height="120" fill="white"/>
</clipPath>
</defs>
</svg>
